# Blender v2.77 (sub 0) OBJ File: 'pin.blend'
# www.blender.org
mtllib pin.mtl
o Cylinder
v 0.321671 -0.000830 -1.236813
v 0.321671 2.986089 -1.236813
v 0.704354 -0.000830 -1.160692
v 0.704354 2.986089 -1.160692
v 1.028777 -0.000830 -0.943919
v 1.028777 2.986089 -0.943919
v 1.245550 -0.000830 -0.619496
v 1.245550 2.986089 -0.619496
v 1.321671 -0.000830 -0.236813
v 1.321671 2.986089 -0.236813
v 1.245550 -0.000830 0.145871
v 1.245550 2.986089 0.145871
v 1.028777 -0.000830 0.470294
v 1.028777 2.986089 0.470294
v 0.704354 -0.000830 0.687067
v 0.704354 2.986089 0.687067
v 0.321671 -0.000830 0.763187
v 0.321671 2.986089 0.763187
v -0.061013 -0.000830 0.687067
v -0.061013 2.986089 0.687067
v -0.385436 -0.000830 0.470294
v -0.385436 2.986089 0.470294
v -0.602209 -0.000830 0.145871
v -0.602209 2.986089 0.145871
v -0.678329 -0.000830 -0.236813
v -0.678329 2.986089 -0.236813
v -0.602209 -0.000830 -0.619496
v -0.602209 2.986089 -0.619496
v -0.385436 -0.000830 -0.943920
v -0.385436 2.986089 -0.943920
v -0.061012 -0.000830 -1.160692
v -0.061012 2.986089 -1.160692
v 0.321671 3.403662 -2.236813
v 1.087037 3.403662 -2.084572
v 1.735884 3.403662 -1.651026
v 2.169429 3.403662 -1.002179
v 2.321671 3.403662 -0.236812
v 2.169429 3.403662 0.528554
v 1.735884 3.403662 1.177401
v 1.087038 3.403662 1.610946
v 0.321671 3.403662 1.763187
v -0.443696 3.403662 1.610947
v -1.092543 3.403662 1.177401
v -1.526089 3.403662 0.528555
v -1.678329 3.403662 -0.236813
v -1.526088 3.403662 -1.002180
v -1.092543 3.403662 -1.651027
v -0.443695 3.403662 -2.084572
v 0.321671 4.047667 -2.236813
v 1.087037 4.047667 -2.084572
v 1.735884 4.047667 -1.651026
v 2.169429 4.047667 -1.002179
v 2.321671 4.047667 -0.236812
v 2.169429 4.047667 0.528554
v 1.735884 4.047667 1.177401
v 1.087038 4.047667 1.610946
v 0.321671 4.047667 1.763187
v -0.443696 4.047667 1.610947
v -1.092543 4.047667 1.177401
v -1.526089 4.047667 0.528555
v -1.678329 4.047667 -0.236813
v -1.526088 4.047667 -1.002180
v -1.092543 4.047667 -1.651027
v -0.443695 4.047667 -2.084572
v 0.321671 3.929766 -1.236813
v 0.704354 3.929766 -1.160692
v 1.028777 3.929766 -0.943919
v 1.245550 3.929766 -0.619496
v 1.321671 3.929766 -0.236813
v 1.245550 3.929766 0.145871
v 1.028777 3.929766 0.470294
v 0.704354 3.929766 0.687067
v 0.321671 3.929766 0.763187
v -0.061013 3.929766 0.687067
v -0.385436 3.929766 0.470294
v -0.602209 3.929766 0.145871
v -0.678329 3.929766 -0.236813
v -0.602209 3.929766 -0.619496
v -0.385436 3.929766 -0.943920
v -0.061012 3.929766 -1.160692
vn 0.1951 0.0000 -0.9808
vn 0.5556 0.0000 -0.8315
vn 0.8315 0.0000 -0.5556
vn 0.9808 0.0000 -0.1951
vn 0.9808 0.0000 0.1951
vn 0.8315 0.0000 0.5556
vn 0.5556 0.0000 0.8315
vn 0.1951 0.0000 0.9808
vn -0.1951 0.0000 0.9808
vn -0.5556 0.0000 0.8315
vn -0.8315 0.0000 0.5556
vn -0.9808 0.0000 0.1951
vn -0.9808 0.0000 -0.1951
vn -0.8315 0.0000 -0.5556
vn 0.3842 -0.9201 -0.0764
vn -0.5556 0.0000 -0.8315
vn -0.1951 0.0000 -0.9808
vn 0.0000 -1.0000 -0.0000
vn -0.0764 -0.9201 0.3842
vn -0.3257 -0.9201 -0.2176
vn 0.2176 -0.9201 -0.3257
vn 0.2176 -0.9201 0.3257
vn -0.3842 -0.9201 0.0764
vn 0.3842 -0.9201 0.0764
vn -0.2176 -0.9201 0.3257
vn -0.2176 -0.9201 -0.3257
vn 0.3257 -0.9201 -0.2176
vn 0.0764 -0.9201 0.3842
vn 0.0764 -0.9201 -0.3842
vn -0.3842 -0.9201 -0.0764
vn 0.3257 -0.9201 0.2176
vn -0.3257 -0.9201 0.2176
vn -0.0764 -0.9201 -0.3842
vn 0.1171 0.9929 0.0233
vn 0.0000 1.0000 0.0000
vn -0.0992 0.9929 -0.0663
vn 0.0992 0.9929 0.0663
vn -0.0663 0.9929 -0.0992
vn 0.0663 0.9929 0.0992
vn -0.0233 0.9929 -0.1171
vn -0.0233 0.9929 0.1171
vn 0.0233 0.9929 0.1171
vn 0.0233 0.9929 -0.1171
vn -0.0663 0.9929 0.0992
vn 0.0663 0.9929 -0.0992
vn -0.0992 0.9929 0.0663
vn 0.0992 0.9929 -0.0663
vn -0.1171 0.9929 0.0233
vn 0.1171 0.9929 -0.0233
vn -0.1171 0.9929 -0.0233
usemtl None
s off
f 1//1 2//1 4//1 3//1
f 3//2 4//2 6//2 5//2
f 5//3 6//3 8//3 7//3
f 7//4 8//4 10//4 9//4
f 9//5 10//5 12//5 11//5
f 11//6 12//6 14//6 13//6
f 13//7 14//7 16//7 15//7
f 15//8 16//8 18//8 17//8
f 17//9 18//9 20//9 19//9
f 19//10 20//10 22//10 21//10
f 21//11 22//11 24//11 23//11
f 23//12 24//12 26//12 25//12
f 25//13 26//13 28//13 27//13
f 27//14 28//14 30//14 29//14
f 10//15 8//15 36//15 37//15
f 29//16 30//16 32//16 31//16
f 31//17 32//17 2//17 1//17
f 1//18 3//18 5//18 7//18 9//18 11//18 13//18 15//18 17//18 19//18 21//18 23//18 25//18 27//18 29//18 31//18
f 48//16 47//16 63//16 64//16
f 20//19 18//19 41//19 42//19
f 30//20 28//20 46//20 47//20
f 6//21 4//21 34//21 35//21
f 16//22 14//22 39//22 40//22
f 26//23 24//23 44//23 45//23
f 12//24 10//24 37//24 38//24
f 22//25 20//25 42//25 43//25
f 32//26 30//26 47//26 48//26
f 8//27 6//27 35//27 36//27
f 18//28 16//28 40//28 41//28
f 4//29 2//29 33//29 34//29
f 28//30 26//30 45//30 46//30
f 14//31 12//31 38//31 39//31
f 24//32 22//32 43//32 44//32
f 2//33 32//33 48//33 33//33
f 62//34 61//34 77//34 78//34
f 41//8 40//8 56//8 57//8
f 34//1 33//1 49//1 50//1
f 33//17 48//17 64//17 49//17
f 42//9 41//9 57//9 58//9
f 35//2 34//2 50//2 51//2
f 43//10 42//10 58//10 59//10
f 36//3 35//3 51//3 52//3
f 44//11 43//11 59//11 60//11
f 37//4 36//4 52//4 53//4
f 45//12 44//12 60//12 61//12
f 38//5 37//5 53//5 54//5
f 46//13 45//13 61//13 62//13
f 39//6 38//6 54//6 55//6
f 47//14 46//14 62//14 63//14
f 40//7 39//7 55//7 56//7
f 66//35 65//35 80//35 79//35 78//35 77//35 76//35 75//35 74//35 73//35 72//35 71//35 70//35 69//35 68//35 67//35
f 55//36 54//36 70//36 71//36
f 63//37 62//37 78//37 79//37
f 56//38 55//38 71//38 72//38
f 64//39 63//39 79//39 80//39
f 57//40 56//40 72//40 73//40
f 50//41 49//41 65//41 66//41
f 49//42 64//42 80//42 65//42
f 58//43 57//43 73//43 74//43
f 51//44 50//44 66//44 67//44
f 59//45 58//45 74//45 75//45
f 52//46 51//46 67//46 68//46
f 60//47 59//47 75//47 76//47
f 53//48 52//48 68//48 69//48
f 61//49 60//49 76//49 77//49
f 54//50 53//50 69//50 70//50
